<?xml version="1.0" encoding="UTF-8" standalone="no"?>
<!-- Created with Inkscape (http://www.inkscape.org/) -->

<svg
   version="1.1"
   id="svg2"
   width="1024"
   height="1024"
   viewBox="0 0 1024 1024"
   sodipodi:docname="icon.svg"
   inkscape:version="1.2.2 (1:1.2.2+202212051552+b0a8486541)"
   xmlns:inkscape="http://www.inkscape.org/namespaces/inkscape"
   xmlns:sodipodi="http://sodipodi.sourceforge.net/DTD/sodipodi-0.dtd"
   xmlns="http://www.w3.org/2000/svg"
   xmlns:svg="http://www.w3.org/2000/svg">
  <defs
     id="defs6" />
  <sodipodi:namedview
     id="namedview4"
     pagecolor="#ffffff"
     bordercolor="#666666"
     borderopacity="1.0"
     inkscape:showpageshadow="2"
     inkscape:pageopacity="0.0"
     inkscape:pagecheckerboard="0"
     inkscape:deskcolor="#d1d1d1"
     showgrid="false"
     inkscape:zoom="0.65186406"
     inkscape:cx="455.61646"
     inkscape:cy="413.42975"
     inkscape:window-width="1346"
     inkscape:window-height="1025"
     inkscape:window-x="20"
     inkscape:window-y="20"
     inkscape:window-maximized="0"
     inkscape:current-layer="g8" />
  <g
     inkscape:groupmode="layer"
     inkscape:label="Image"
     id="g8">
    <path
       style="fill:#caccd4;fill-opacity:1"
       d="m 486.88002,868.91589 c -42.24395,-3.8054 -71.48428,-10.6754 -111.9085,-26.2929 -47.65719,-18.412 -97.64679,-54.1674 -133.43169,-95.4382 -9.0847,-10.4774 -24.94325,-31.6333 -33.83799,-45.1412 -16.43356,-24.9566 -34.32891,-66.9578 -42.23855,-99.13596 -6.19674,-25.20968 -11.58327,-62.62944 -11.58327,-80.46794 0,-8.98682 -4.79462,-8.39609 68.14578,-8.39609 h 63.70077 l 3.00321,-2.52703 c 5.39819,-4.54228 5.02311,-11.93599 -0.75714,-14.92507 -2.61037,-1.34988 -11.178,-1.5479 -66.97153,-1.5479 -57.78646,0 -64.13588,-0.15764 -65.60714,-1.62891 -1.73838,-1.73837 -1.67109,-4.85205 0.60231,-27.87109 2.65297,-26.86248 13.85923,-68.17517 25.93866,-95.6248 16.28509,-37.0067 40.85004,-73.37762 69.38178,-102.72682 18.25386,-18.77684 38.86765,-36.36798 56.0633,-47.84257 40.76641,-27.20327 71.81048,-41.0247 121,-53.87159 19.00596,-4.96381 33.19006,-7.56171 54.27669,-9.94109 15.3794,-1.73539 17.91281,-1.4915 19.16297,1.84481 0.44559,1.18913 0.89007,16.20094 0.98774,33.35957 0.16585,29.13615 0.0556,31.31953 -1.66915,33.04424 -1.40527,1.40527 -4.64036,2.13794 -13.53297,3.06488 -26.52642,2.76506 -55.58018,13.0859 -80.22528,28.49861 -37.45134,23.42155 -63.51068,55.95609 -76.47243,95.47418 -7.03233,21.44033 -7.27449,23.85768 -7.93606,79.22058 l -0.59151,49.5 -6.94237,11 c -18.58484,29.44718 -29.52784,66.85472 -29.54601,101 -0.0175,32.89489 7.54857,65.67099 21.92993,94.99999 10.88999,22.2088 22.85466,39.1432 40.532,57.3678 28.00546,28.8723 59.08871,47.8219 97.52645,59.4559 12.51502,3.788 31.45198,7.315 44.77227,8.3389 12.84046,0.987 12.22773,-0.5148 12.22773,29.9692 0,24.9639 -0.0256,25.2727 -2.22251,26.8115 -1.22237,0.8561 -2.68487,1.4955 -3.25,1.4207 -0.56512,-0.075 -5.30249,-0.521 -10.52749,-0.9917 z m 34.97525,-2.4374 c -0.53639,-1.4108 -0.97525,-13.3358 -0.97525,-26.5 0,-28.9151 -0.73947,-27.2902 12.88725,-28.3189 52.6319,-3.9732 104.40131,-28.8632 142.10244,-68.3212 42.06499,-44.0251 63.56533,-97.9919 61.67009,-154.79479 -1.23896,-37.13305 -11.07513,-69.08558 -30.30995,-98.46108 l -6.84983,-10.46108 -0.59296,-52.53892 c -0.64915,-57.51821 -0.5681,-56.66932 -7.45068,-78.03892 -11.42215,-35.4644 -37.81964,-68.40153 -73.95636,-92.2781 -23.66189,-15.63409 -59.54105,-28.62508 -83.96011,-30.39996 -14.18609,-1.0311 -13.29876,1.38812 -13.3547,-36.41065 -0.0564,-38.11502 -0.52629,-36.48992 10.26774,-35.51179 3.98133,0.36078 8.09565,0.81168 9.14293,1.00201 1.04728,0.19032 4.60414,0.66055 7.90414,1.04496 28.93549,3.37058 65.19105,11.93838 88,20.79587 49.73079,19.31217 91.12835,45.54245 126.42905,80.10784 54.3506,53.2185 88.88445,116.46961 102.11764,187.03543 3.5417,18.88604 5.93504,45.83422 4.30082,48.42573 -0.97638,1.54832 -6.49936,1.73021 -66.45619,2.18866 -48.5945,0.37157 -65.93404,0.81127 -67.50417,1.71178 -2.77479,1.59143 -4.78087,6.58337 -3.95999,9.85404 0.35955,1.43255 1.82624,3.69129 3.25931,5.01941 l 2.60558,2.41477 h 63.78887 c 41.47104,0 64.73963,0.36148 66.50632,1.03317 l 2.71744,1.03317 -0.65757,12.9925 c -1.56648,30.95088 -10.0503,74.85946 -19.87243,102.85105 -13.94612,39.7444 -33.53412,74.4343 -61.33331,108.6199 -26.86303,33.0344 -67.52092,65.9805 -108.97467,88.3052 -27.46406,14.7905 -70.03364,29.2346 -103.4667,35.1067 -16.99198,2.9844 -35.33723,5.0583 -44.74489,5.0583 -7.99432,0 -8.34105,-0.096 -9.27986,-2.5651 z m -31.97525,-88.0305 c -1.375,-0.2392 -6.775,-1.1567 -12,-2.0388 -11.30545,-1.9086 -31.43131,-7.914 -42.73147,-12.7506 -27.46587,-11.7559 -55.58061,-33.3527 -74.49805,-57.2269 -16.42775,-20.7322 -29.18176,-46.1287 -35.10197,-69.897 -4.44447,-17.8436 -5.17155,-24.1116 -5.10288,-43.99109 0.0573,-16.6048 0.40222,-20.59479 2.73567,-31.6507 4.65905,-22.07452 12.48276,-40.29272 25.27254,-58.8493 l 7.92616,-11.5 0.5699,-55.5 c 0.53757,-52.3516 0.69038,-55.95822 2.69368,-63.57754 15.91019,-60.51252 71.26823,-105.18368 139.52083,-112.58632 25.1126,-2.7237 58.06384,3.81553 83.82067,16.63436 16.98374,8.45258 30.00166,17.95246 44.20623,32.25969 19.40342,19.54365 30.50779,39.09338 36.78966,64.76981 1.82144,7.44495 1.95482,11.71193 1.92237,61.5 l -0.0349,53.5 3.03718,5 c 1.67044,2.75 5.52683,8.6 8.56974,13 10.55071,15.25615 18.70392,34.87079 23.62864,56.84471 1.96622,8.77325 2.27466,12.94516 2.26637,30.65529 -0.0109,23.28019 -1.632,34.02729 -8.08669,53.61009 -10.5706,32.0701 -32.90866,65.2899 -58.05155,86.3308 -26.13245,21.869 -52.4459,34.8556 -86.35251,42.6178 -10.328,2.3644 -13.89399,2.6657 -34.99966,2.9566 -12.925,0.1782 -24.625,0.1283 -26,-0.1109 z m 80.68811,-77.0607 c 4.05125,-1.9224 7.90771,-7.331 8.80141,-12.3437 0.85944,-4.8205 -3.99233,-33.9515 -24.54889,-147.39634 -6.56735,-36.243 -11.93897,-66.393 -11.93693,-67 0.002,-0.60701 3.03953,-2.65195 6.75,-4.54431 8.42324,-4.2959 22.15212,-17.79129 27.52752,-27.05934 16.59864,-28.6187 12.58837,-64.02758 -9.96699,-88.00407 -12.51858,-13.30733 -26.09162,-20.62387 -43.84454,-23.63439 -12.19989,-2.06884 -23.7869,-0.96735 -36.26168,3.44712 -11.63263,4.11646 -18.55402,8.57416 -28.33359,18.24815 -7.50485,7.42382 -9.32305,9.93956 -13.73187,19 -6.08172,12.49838 -8.10797,20.50219 -8.12777,32.10522 -0.0268,15.72206 3.92769,29.74844 11.79556,41.83797 5.50532,8.4593 16.8754,19.06164 25.04689,23.35564 4.57717,2.40523 7.14192,4.36241 7.1404,5.44889 -0.003,2.14669 -7.57643,46.1418 -21.29325,123.69547 -10.82373,61.19649 -15.00529,88.08249 -14.29129,91.88849 0.73576,3.9219 5.6737,10.2924 9.03224,11.6526 1.13007,0.4577 26.96166,0.8607 57.40354,0.8955 49.53272,0.057 55.71565,-0.1106 58.83924,-1.5929 z"
       id="path280"
       sodipodi:nodetypes="ssssssscssssssssssssssssscsssssssssssssssscsssssssssssssssscsscssssssssssssssscssssssscssssssssssssssssssssssssssssss"
       inkscape:export-filename="light-icon.png"
       inkscape:export-xdpi="68.612648"
       inkscape:export-ydpi="68.612648" />
  </g>
</svg>
